<?xml version="1.0" encoding="utf-8"?>
<svg version="1.1" xmlns:xlink="http://www.w3.org/1999/xlink" width="32px" height="32px" xmlns="http://www.w3.org/2000/svg">
  <g transform="matrix(1 0 0 1 -544 -353 )">
    <path d="M 2 20  L 2 29.5454545454545  C 2 30.8025568181818  2.89375 31.8181818181818  4 31.8181818181818  L 14 31.8181818181818  L 14 20  L 2 20  Z M 32 11.3636363636364  C 32 10.1065340909091  31.10625 9.09090909090909  30 9.09090909090909  L 27.36875 9.09090909090909  C 27.75625 8.23153409090909  28 7.27982954545455  28 6.25  C 28 2.80539772727273  25.53125 0  22.5 0  C 19.9 0  18.21875 1.51278409090909  16.0625 4.85085227272727  C 13.90625 1.51278409090909  12.225 0  9.625 0  C 6.59375 0  4.125 2.80539772727273  4.125 6.25  C 4.125 7.27982954545455  4.3625 8.23153409090909  4.75625 9.09090909090909  L 2 9.09090909090909  C 0.89375 9.09090909090909  0 10.1065340909091  0 11.3636363636364  L 0 17.0454545454545  C 0 17.6704545454545  0.45 18.1818181818182  1 18  L 31 18  C 31.55 18.1818181818182  32 17.6704545454545  32 17.0454545454545  L 32 11.3636363636364  Z M 15 9.09090909090909  L 9.61875 9.09090909090909  C 8.2375 9.09090909090909  7.11875 7.81960227272727  7.11875 6.25  C 7.11875 4.68039772727273  8.2375 3.40909090909091  9.61875 3.40909090909091  C 10.8625 3.40909090909091  11.78125 3.64346590909091  15 9.09090909090909  Z M 25 6.25  C 25 7.81960227272727  23.88125 9.09090909090909  22.5 9.09090909090909  L 17.11875 9.09090909090909  C 20.33125 3.65767045454545  21.225 3.40909090909091  22.5 3.40909090909091  C 23.88125 3.40909090909091  25 4.68039772727273  25 6.25  Z M 18 20  L 18 31.8181818181818  L 28 31.8181818181818  C 29.10625 31.8181818181818  30 30.8025568181818  30 29.5454545454545  L 30 20  L 18 20  Z " fill-rule="nonzero" fill="#a30014" stroke="none" transform="matrix(1 0 0 1 544 353 )" />
  </g>
</svg>